<svg width="540" height="55" viewBox="0 0 540 55" fill="none" xmlns="http://www.w3.org/2000/svg">
<path d="M10.36 54.1205C8.49333 54.1205 6.76667 53.6539 5.18 52.7205C3.59333 51.7872 2.33333 50.5272 1.4 48.9405C0.466667 47.3539 0 45.6272 0 43.7605V39.0705H10.85V43.2005H39.41V34.3805H10.36C8.49333 34.3805 6.76667 33.9139 5.18 32.9805C3.59333 32.0472 2.33333 30.8105 1.4 29.2705C0.466667 27.6839 0 25.9339 0 24.0205V14.0805C0 12.1672 0.466667 10.4405 1.4 8.90052C2.33333 7.31385 3.59333 6.05386 5.18 5.12052C6.76667 4.18719 8.49333 3.72052 10.36 3.72052H40.04C41.9067 3.72052 43.61 4.18719 45.15 5.12052C46.7367 6.05386 47.9967 7.31385 48.93 8.90052C49.91 10.4405 50.4 12.1672 50.4 14.0805V18.7705H39.41V14.6405H10.85V23.4605H40.04C41.9067 23.4605 43.61 23.9272 45.15 24.8605C46.7367 25.7939 47.9967 27.0539 48.93 28.6405C49.91 30.1805 50.4 31.9072 50.4 33.8205V43.7605C50.4 45.6272 49.91 47.3539 48.93 48.9405C47.9967 50.5272 46.7367 51.7872 45.15 52.7205C43.61 53.6539 41.9067 54.1205 40.04 54.1205H10.36Z" fill="url(#paint0_linear_45_62)"/>
<path d="M57.9688 54.1205V0.22052H68.6787V28.4305H74.1387L87.9287 13.5205H98.7088V17.1605L83.5888 33.8205L98.7088 50.4805V54.1205H87.9287L74.1387 39.2105H68.6787V54.1205H57.9688Z" fill="url(#paint1_linear_45_62)"/>
<path d="M113.233 54.1205C111.366 54.1205 109.663 53.6539 108.123 52.7205C106.583 51.7872 105.346 50.5505 104.413 49.0105C103.526 47.4705 103.083 45.7905 103.083 43.9705V28.4305H133.533V24.2305H103.083V13.5205H134.093C135.959 13.5205 137.663 13.9872 139.203 14.9205C140.743 15.8539 141.956 17.0905 142.843 18.6305C143.776 20.1705 144.243 21.8505 144.243 23.6705V54.1205H113.233ZM113.793 43.4105H133.533V37.8105H113.793V43.4105Z" fill="url(#paint2_linear_45_62)"/>
<path d="M161.976 54.1205C160.109 54.1205 158.406 53.6539 156.866 52.7205C155.326 51.7872 154.09 50.5505 153.156 49.0105C152.223 47.4705 151.756 45.7905 151.756 43.9705V1.48052H162.466V13.5205H177.516V24.2305H162.466V43.4105H177.516V54.1205H161.976Z" fill="url(#paint3_linear_45_62)"/>
<path d="M193.348 54.1205C191.528 54.1205 189.848 53.6539 188.308 52.7205C186.768 51.7872 185.532 50.5505 184.598 49.0105C183.665 47.4705 183.198 45.7905 183.198 43.9705V23.6705C183.198 21.8505 183.665 20.1705 184.598 18.6305C185.532 17.0905 186.768 15.8539 188.308 14.9205C189.848 13.9872 191.528 13.5205 193.348 13.5205H214.208C216.075 13.5205 217.778 13.9872 219.318 14.9205C220.858 15.8539 222.072 17.0905 222.958 18.6305C223.892 20.1705 224.358 21.8505 224.358 23.6705V39.2105H193.908V43.4105H224.358V54.1205H193.348ZM193.908 29.8305H213.648V24.2305H193.908V29.8305Z" fill="url(#paint4_linear_45_62)"/>
<path d="M231.875 54.1205V0.22052H242.585V13.5205H262.885C264.752 13.5205 266.455 13.9872 267.995 14.9205C269.535 15.8539 270.748 17.0905 271.635 18.6305C272.568 20.1705 273.035 21.8505 273.035 23.6705V43.9705C273.035 45.7905 272.568 47.4705 271.635 49.0105C270.748 50.5505 269.535 51.7872 267.995 52.7205C266.455 53.6539 264.752 54.1205 262.885 54.1205H231.875ZM242.585 43.4105H262.325V24.2305H242.585V43.4105Z" fill="url(#paint5_linear_45_62)"/>
<path d="M288.504 54.1205C286.684 54.1205 285.004 53.6539 283.464 52.7205C281.924 51.7872 280.688 50.5505 279.754 49.0105C278.821 47.4705 278.354 45.7905 278.354 43.9705V23.6705C278.354 21.8505 278.821 20.1705 279.754 18.6305C280.688 17.0905 281.924 15.8539 283.464 14.9205C285.004 13.9872 286.684 13.5205 288.504 13.5205H399.364C401.231 13.5205 402.934 13.9872 404.474 14.9205C406.014 15.8539 407.228 17.0905 408.114 18.6305C409.048 20.1705 409.514 21.8505 409.514 23.6705V43.9705C409.514 45.7905 409.048 47.4705 408.114 49.0105C407.228 50.5505 406.014 51.7872 404.474 52.7205C402.934 53.6539 401.231 54.1205 399.364 54.1205H288.504ZM289.064 43.4105H398.804V24.2305H289.064V43.4105Z" fill="url(#paint6_linear_45_62)"/>
<path d="M425.196 54.1205C423.329 54.1205 421.626 53.6539 420.086 52.7205C418.546 51.7872 417.309 50.5505 416.376 49.0105C415.489 47.4705 415.046 45.7905 415.046 43.9705V28.4305H445.496V24.2305H415.046V13.5205H446.056C447.922 13.5205 449.626 13.9872 451.166 14.9205C452.706 15.8539 453.919 17.0905 454.806 18.6305C455.739 20.1705 456.206 21.8505 456.206 23.6705V54.1205H425.196ZM425.756 43.4105H445.496V37.8105H425.756V43.4105Z" fill="url(#paint7_linear_45_62)"/>
<path d="M461.735 54.1205V23.6705C461.735 21.8505 462.202 20.1705 463.135 18.6305C464.068 17.0905 465.305 15.8539 466.845 14.9205C468.385 13.9872 470.088 13.5205 471.955 13.5205H494.355V24.2305H472.445V54.1205H461.735Z" fill="url(#paint8_linear_45_62)"/>
<path d="M508.888 54.1205C507.022 54.1205 505.318 53.6539 503.778 52.7205C502.238 51.7872 501.002 50.5505 500.068 49.0105C499.182 47.4705 498.738 45.7905 498.738 43.9705V23.6705C498.738 21.8505 499.182 20.1705 500.068 18.6305C501.002 17.0905 502.238 15.8539 503.778 14.9205C505.318 13.9872 507.022 13.5205 508.888 13.5205H529.258V0.22052H539.968V54.1205H508.888ZM509.518 43.4105H529.258V24.2305H509.518V43.4105Z" fill="url(#paint9_linear_45_62)"/>
<defs>
<linearGradient id="paint0_linear_45_62" x1="-11.1537" y1="5.9306" x2="122.839" y2="267.663" gradientUnits="userSpaceOnUse">
<stop stop-color="#A21ECE"/>
<stop offset="0.46875" stop-color="#F25671"/>
<stop offset="1" stop-color="#FFCB51"/>
</linearGradient>
<linearGradient id="paint1_linear_45_62" x1="-11.1537" y1="5.9306" x2="122.839" y2="267.663" gradientUnits="userSpaceOnUse">
<stop stop-color="#A21ECE"/>
<stop offset="0.46875" stop-color="#F25671"/>
<stop offset="1" stop-color="#FFCB51"/>
</linearGradient>
<linearGradient id="paint2_linear_45_62" x1="-11.1537" y1="5.9306" x2="122.839" y2="267.663" gradientUnits="userSpaceOnUse">
<stop stop-color="#A21ECE"/>
<stop offset="0.46875" stop-color="#F25671"/>
<stop offset="1" stop-color="#FFCB51"/>
</linearGradient>
<linearGradient id="paint3_linear_45_62" x1="-11.1537" y1="5.9306" x2="122.839" y2="267.663" gradientUnits="userSpaceOnUse">
<stop stop-color="#A21ECE"/>
<stop offset="0.46875" stop-color="#F25671"/>
<stop offset="1" stop-color="#FFCB51"/>
</linearGradient>
<linearGradient id="paint4_linear_45_62" x1="-11.1537" y1="5.9306" x2="122.839" y2="267.663" gradientUnits="userSpaceOnUse">
<stop stop-color="#A21ECE"/>
<stop offset="0.46875" stop-color="#F25671"/>
<stop offset="1" stop-color="#FFCB51"/>
</linearGradient>
<linearGradient id="paint5_linear_45_62" x1="-11.1537" y1="5.9306" x2="122.839" y2="267.663" gradientUnits="userSpaceOnUse">
<stop stop-color="#A21ECE"/>
<stop offset="0.46875" stop-color="#F25671"/>
<stop offset="1" stop-color="#FFCB51"/>
</linearGradient>
<linearGradient id="paint6_linear_45_62" x1="-11.1537" y1="5.9306" x2="122.839" y2="267.663" gradientUnits="userSpaceOnUse">
<stop stop-color="#A21ECE"/>
<stop offset="0.46875" stop-color="#F25671"/>
<stop offset="1" stop-color="#FFCB51"/>
</linearGradient>
<linearGradient id="paint7_linear_45_62" x1="-11.1537" y1="5.9306" x2="122.839" y2="267.663" gradientUnits="userSpaceOnUse">
<stop stop-color="#A21ECE"/>
<stop offset="0.46875" stop-color="#F25671"/>
<stop offset="1" stop-color="#FFCB51"/>
</linearGradient>
<linearGradient id="paint8_linear_45_62" x1="-11.1537" y1="5.9306" x2="122.839" y2="267.663" gradientUnits="userSpaceOnUse">
<stop stop-color="#A21ECE"/>
<stop offset="0.46875" stop-color="#F25671"/>
<stop offset="1" stop-color="#FFCB51"/>
</linearGradient>
<linearGradient id="paint9_linear_45_62" x1="-11.1537" y1="5.9306" x2="122.839" y2="267.663" gradientUnits="userSpaceOnUse">
<stop stop-color="#A21ECE"/>
<stop offset="0.46875" stop-color="#F25671"/>
<stop offset="1" stop-color="#FFCB51"/>
</linearGradient>
</defs>
</svg>
