<svg width="28" height="29" viewBox="0 0 28 29" fill="none" xmlns="http://www.w3.org/2000/svg">
<path fill-rule="evenodd" clip-rule="evenodd" d="M12.6409 14.7602L12.6426 15.1733C12.6568 16.8118 12.7556 18.2737 12.926 19.2002C12.926 19.2169 13.1118 20.1358 13.2301 20.4416C13.416 20.8837 13.7519 21.259 14.1732 21.4967C14.5105 21.6663 14.8643 21.7524 15.2347 21.7524C15.5258 21.7389 16.0059 21.5924 16.3486 21.4696L16.6334 21.3605C18.5195 20.6113 22.1251 18.1631 23.506 16.666L23.6078 16.5613L24.0622 16.071C24.3485 15.6957 24.5 15.2369 24.5 14.7434C24.5 14.3014 24.3651 13.8593 24.0953 13.502C24.0145 13.3863 23.8844 13.2378 23.7686 13.1123L23.3263 12.6494C21.8045 11.1074 18.5093 8.94458 16.8014 8.22793C16.8014 8.21251 15.7399 7.76915 15.2347 7.75244H15.1672C14.3921 7.75244 13.6679 8.19452 13.2976 8.90904C13.1964 9.10438 13.0994 9.48702 13.0255 9.82308L12.8929 10.4576C12.7414 11.478 12.6409 13.0432 12.6409 14.7602ZM5.2538 12.981C4.28526 12.981 3.5 13.774 3.5 14.7519C3.5 15.7299 4.28526 16.5228 5.2538 16.5228L9.56956 16.1411C10.3294 16.1411 10.9454 15.5204 10.9454 14.7519C10.9454 13.9847 10.3294 13.3627 9.56956 13.3627L5.2538 12.981Z" fill="white"/>
</svg>
