<svg width="146" height="47" viewBox="0 0 146 47" fill="none" xmlns="http://www.w3.org/2000/svg">
<path d="M71.18 33.8668V12.2668H75.98L88.07 26.6668V12.2668H92.78V33.8668H87.98L75.83 19.4068V33.8668H71.18Z" fill="white"/>
<path d="M96.2009 33.8668V12.2668H116.151V16.9468H100.911V20.7268H113.181V25.4068H100.911V33.8668H96.2009Z" fill="white"/>
<path d="M125.494 33.8668V16.9468H117.034V12.2668H138.634V16.9468H130.174V33.8668H125.494Z" fill="white"/>
<path d="M140.817 33.8668V29.2768H145.407V33.8668H140.817Z" fill="white"/>
<path d="M54.4614 12.9502C54.9692 6.42062 50.4135 0.909698 43.9543 0.888568C41.0468 0.878964 38.1675 2.02635 35.8823 4.08679C35.7433 4.21292 35.6063 4.34034 35.4725 4.47288C33.3621 2.19027 30.4488 0.845029 27.2871 0.834784C24.1087 0.82454 21.1897 2.1717 19.0774 4.42101C18.9455 4.28912 18.8104 4.16042 18.6734 4.03492C16.401 1.95784 13.5287 0.790605 10.6199 0.781C7.17131 0.770116 4.2196 2.35674 2.30707 4.86217C0.532201 7.18512 -0.320657 10.263 0.110254 13.5483C0.388137 15.665 1.18529 17.7037 2.40247 19.4517C2.93455 20.2149 3.5409 20.9186 4.20743 21.548L9.89892 28.0302L7.32497 35.5548L7.32433 35.5561L7.32369 35.5574L7.26031 35.7002L7.2046 35.9601C7.03557 36.74 6.99651 37.5429 7.08487 38.3465C7.16939 39.1142 7.36723 39.8511 7.65856 40.5439C9.03069 43.7998 12.5196 46.1233 16.3651 46.1355C21.011 46.1502 24.7548 42.7676 24.7087 38.4028C24.6895 36.5601 23.98 34.7154 22.6956 33.2127L17.5772 27.0659L19.5538 21.8796C21.5854 23.8095 24.2752 24.9844 27.2045 24.9933C30.1377 25.0029 32.8397 23.8421 34.8854 21.9206L36.8536 27.1754L32.3972 32.4821C30.6512 34.0815 29.6485 36.2374 29.6107 38.4188C29.5998 39.0521 29.6683 39.6635 29.8066 40.2475C30.6256 43.6954 33.916 46.1925 37.9024 46.2053C42.5483 46.22 46.7248 42.8393 47.2352 38.4758C47.3472 37.5211 47.2787 36.5767 47.0283 35.6662L47.0309 35.6464L46.9784 35.4902C46.9381 35.3512 46.89 35.2091 46.8369 35.0669L44.5229 28.1736L50.3962 21.5409L50.6658 21.2989L50.7253 21.2041C51.0128 20.9058 51.2882 20.5939 51.5475 20.27L51.5488 20.2693L51.5571 20.2623L51.6384 20.1566L51.648 20.1445L51.7921 19.9562L51.8298 19.9069L51.8721 19.8499C53.2 18.0533 54.0708 15.9391 54.3769 13.7231C54.4134 13.4644 54.4416 13.207 54.4614 12.9502ZM8.02993 15.6017C7.66176 14.9844 7.4319 14.2865 7.36339 13.5713L7.36019 13.538C7.14377 11.0864 8.87318 9.05731 11.2358 9.06499C13.0434 9.07076 14.6754 10.2502 15.3983 11.9533V11.9546L12.3685 20.811L8.02993 15.6017ZM18.3487 38.3836C18.4 39.4894 17.574 40.3979 16.4452 40.5734H16.4445C16.3114 40.5951 16.1737 40.6054 16.0328 40.6047C15.892 40.6041 15.753 40.5926 15.6167 40.5702C14.4661 40.3877 13.5293 39.474 13.4474 38.3676C13.4339 38.1832 13.4442 38.0013 13.4781 37.824L13.4787 37.8227L14.9975 33.8369L16.1295 35.1258L17.6976 36.9116L17.7405 36.9596C18.0011 37.2452 18.318 37.7235 18.3487 38.3836ZM31.3926 14.2916C31.3881 14.3179 31.3836 14.3448 31.3785 14.371C31.3708 14.4146 31.3625 14.4562 31.3542 14.4991C31.3478 14.5273 31.342 14.5541 31.3356 14.5823C31.326 14.6227 31.3164 14.6636 31.3062 14.7033C31.2991 14.7315 31.2908 14.759 31.2831 14.7872C31.2722 14.8269 31.2607 14.8653 31.2492 14.9037C31.2402 14.9319 31.2319 14.9594 31.2229 14.9863C31.2101 15.0248 31.196 15.0625 31.1832 15.0997C31.1736 15.1266 31.1634 15.1547 31.1525 15.1803C31.1384 15.2188 31.1231 15.2559 31.1077 15.2937C31.0968 15.3186 31.0872 15.3443 31.0757 15.3705C31.059 15.4096 31.0405 15.448 31.0232 15.4864C31.0123 15.5095 31.002 15.5325 30.9912 15.5556C30.9681 15.6017 30.9438 15.6471 30.9201 15.6932C30.9124 15.7067 30.906 15.7207 30.8983 15.7342C30.8669 15.7925 30.8343 15.8494 30.7997 15.9058C30.7863 15.9269 30.7728 15.9468 30.76 15.9679C30.7382 16.0031 30.7165 16.0396 30.6928 16.0735C30.6768 16.0972 30.6608 16.1203 30.6448 16.144C30.623 16.1741 30.6012 16.2054 30.5795 16.2362C30.5615 16.2599 30.543 16.2836 30.525 16.3072C30.5033 16.3354 30.4808 16.3642 30.4591 16.3924C30.4392 16.4161 30.4194 16.4398 30.4002 16.4622C30.3778 16.4897 30.3554 16.516 30.3317 16.5429C30.3112 16.5653 30.2907 16.5883 30.2702 16.6107C30.2465 16.6364 30.2228 16.662 30.1985 16.6863C30.1767 16.7087 30.1556 16.7305 30.1338 16.7522C30.1095 16.7766 30.0845 16.8003 30.0583 16.8246C30.0371 16.8451 30.0147 16.8662 29.9923 16.8867C29.9661 16.9104 29.9392 16.9328 29.9123 16.9565C29.8899 16.9751 29.8675 16.9949 29.8444 17.0141C29.8169 17.0378 29.7881 17.0589 29.7592 17.082C29.7368 17.0999 29.7151 17.1178 29.6914 17.1345C29.6606 17.1582 29.6293 17.1806 29.5973 17.203C29.5761 17.2177 29.5556 17.2337 29.5345 17.2478C29.4922 17.2766 29.4494 17.3042 29.4071 17.3311C29.393 17.3394 29.3802 17.3477 29.3668 17.356C29.3142 17.3887 29.2611 17.4194 29.2067 17.4508C29.1856 17.4623 29.1644 17.4726 29.1439 17.4834C29.1074 17.5033 29.0716 17.5219 29.0344 17.5404C29.0095 17.5526 28.9851 17.5635 28.9608 17.575C28.9262 17.591 28.8923 17.6077 28.8571 17.6224C28.8315 17.6333 28.8059 17.6435 28.779 17.655C28.745 17.6691 28.7111 17.6832 28.6765 17.696C28.6503 17.7063 28.6227 17.7165 28.5958 17.7255C28.5613 17.7376 28.5273 17.7498 28.4928 17.7607C28.4646 17.7697 28.4371 17.7786 28.4095 17.7869C28.3737 17.7978 28.3391 17.8081 28.3039 17.8177C28.2763 17.8254 28.2482 17.8337 28.22 17.8401C28.1841 17.849 28.1477 17.8574 28.1112 17.8657C28.0836 17.8715 28.0555 17.8779 28.0273 17.883C27.9901 17.8907 27.9524 17.8971 27.9152 17.9035C27.8871 17.908 27.8595 17.9137 27.8326 17.9169C27.7923 17.9233 27.7526 17.9278 27.7135 17.9323C27.6873 17.9348 27.661 17.9387 27.6341 17.9413C27.5893 17.9457 27.5451 17.9483 27.4997 17.9509C27.4779 17.9528 27.4561 17.9547 27.4331 17.9553C27.3659 17.9592 27.2986 17.9605 27.2301 17.9605C24.959 17.9534 23.0779 16.0306 23.0356 13.6213C23.0311 13.3639 23.0183 13.1065 22.9985 12.8478L23.1675 12.4047L23.1995 12.301H23.2002L23.2283 12.2069L23.2328 12.1921C23.7905 10.3558 25.4079 9.11045 27.2589 9.11622C28.8603 9.12134 30.2945 10.0606 31.0097 11.5544L31.0373 11.6152C31.1288 11.8137 31.2063 12.0205 31.2684 12.2306L31.3446 12.4931L31.4041 12.6243L31.4067 12.6301L31.4963 12.8657V12.8689C31.4739 13.1282 31.4592 13.3882 31.4534 13.6481C31.4483 13.8678 31.4278 14.0823 31.3926 14.2916ZM39.7515 40.2443C39.7323 40.2564 39.7125 40.2692 39.6933 40.2801C39.2809 40.5317 38.7911 40.6777 38.275 40.6765C37.7583 40.6745 37.289 40.5253 36.9099 40.2712C36.3074 39.8691 35.9329 39.2 35.9732 38.4399C36.0071 37.8041 36.3177 37.2119 36.8504 36.7752L37.1328 36.5447L37.298 36.3353L39.3974 33.9637L40.087 35.8032L40.475 36.8386L40.4699 36.9013L40.7055 37.4552L40.7907 37.6831C40.8695 37.929 40.897 38.1889 40.8759 38.4559C40.8157 39.1936 40.3771 39.8422 39.7515 40.2443ZM46.324 15.916L46.2658 15.9999C46.1051 16.2298 45.9232 16.4481 45.7241 16.6479L45.3041 17.0641L45.208 17.2299L42.0943 20.9378L39.1029 12.0231C39.8399 10.3289 41.4777 9.16424 43.2814 9.17C45.3975 9.17704 46.9995 10.8194 47.1378 12.9278C47.1545 13.1795 47.15 13.4381 47.1231 13.7013C47.0437 14.4908 46.7665 15.254 46.324 15.916Z" fill="url(#paint0_linear_14_121)"/>
<g style="mix-blend-mode:screen" opacity="0.5">
<path d="M54.4614 12.9502C54.9692 6.42062 50.4135 0.909698 43.9543 0.888568C41.0468 0.878964 38.1675 2.02635 35.8823 4.08679C35.7433 4.21292 35.6063 4.34034 35.4725 4.47288C33.3621 2.19027 30.4488 0.845029 27.2871 0.834784C24.1087 0.82454 21.1897 2.1717 19.0774 4.42101C18.9455 4.28912 18.8104 4.16042 18.6734 4.03492C16.401 1.95784 13.5287 0.790605 10.6199 0.781C7.17131 0.770116 4.2196 2.35674 2.30707 4.86217C0.532201 7.18512 -0.320657 10.263 0.110254 13.5483C0.388137 15.665 1.18529 17.7037 2.40247 19.4517C2.93455 20.2149 3.5409 20.9186 4.20743 21.548L9.89892 28.0302L7.32497 35.5548L7.32433 35.5561L7.32369 35.5574L7.26031 35.7002L7.2046 35.9601C7.03557 36.74 6.99651 37.5429 7.08487 38.3465C7.16939 39.1142 7.36723 39.8511 7.65856 40.5439C9.03069 43.7998 12.5196 46.1233 16.3651 46.1355C21.011 46.1502 24.7548 42.7676 24.7087 38.4028C24.6895 36.5601 23.98 34.7154 22.6956 33.2127L17.5772 27.0659L19.5538 21.8796C21.5854 23.8095 24.2752 24.9844 27.2045 24.9933C30.1377 25.0029 32.8397 23.8421 34.8854 21.9206L36.8536 27.1754L32.3972 32.4821C30.6512 34.0815 29.6485 36.2374 29.6107 38.4188C29.5998 39.0521 29.6683 39.6635 29.8066 40.2475C30.6256 43.6954 33.916 46.1925 37.9024 46.2053C42.5483 46.22 46.7248 42.8393 47.2352 38.4758C47.3472 37.5211 47.2787 36.5767 47.0283 35.6662L47.0309 35.6464L46.9784 35.4902C46.9381 35.3512 46.89 35.2091 46.8369 35.0669L44.5229 28.1736L50.3962 21.5409L50.6658 21.2989L50.7253 21.2041C51.0128 20.9058 51.2882 20.5939 51.5475 20.27L51.5488 20.2693L51.5571 20.2623L51.6384 20.1566L51.648 20.1445L51.7921 19.9562L51.8298 19.9069L51.8721 19.8499C53.2 18.0533 54.0708 15.9391 54.3769 13.7231C54.4134 13.4644 54.4416 13.207 54.4614 12.9502ZM8.02993 15.6017C7.66176 14.9844 7.4319 14.2865 7.36339 13.5713L7.36019 13.538C7.14377 11.0864 8.87318 9.05731 11.2358 9.06499C13.0434 9.07076 14.6754 10.2502 15.3983 11.9533V11.9546L12.3685 20.811L8.02993 15.6017ZM18.3487 38.3836C18.4 39.4894 17.574 40.3979 16.4452 40.5734H16.4445C16.3114 40.5951 16.1737 40.6054 16.0328 40.6047C15.892 40.6041 15.753 40.5926 15.6167 40.5702C14.4661 40.3877 13.5293 39.474 13.4474 38.3676C13.4339 38.1832 13.4442 38.0013 13.4781 37.824L13.4787 37.8227L14.9975 33.8369L16.1295 35.1258L17.6976 36.9116L17.7405 36.9596C18.0011 37.2452 18.318 37.7235 18.3487 38.3836ZM31.3926 14.2916C31.3881 14.3179 31.3836 14.3448 31.3785 14.371C31.3708 14.4146 31.3625 14.4562 31.3542 14.4991C31.3478 14.5273 31.342 14.5541 31.3356 14.5823C31.326 14.6227 31.3164 14.6636 31.3062 14.7033C31.2991 14.7315 31.2908 14.759 31.2831 14.7872C31.2722 14.8269 31.2607 14.8653 31.2492 14.9037C31.2402 14.9319 31.2319 14.9594 31.2229 14.9863C31.2101 15.0248 31.196 15.0625 31.1832 15.0997C31.1736 15.1266 31.1634 15.1547 31.1525 15.1803C31.1384 15.2188 31.1231 15.2559 31.1077 15.2937C31.0968 15.3186 31.0872 15.3443 31.0757 15.3705C31.059 15.4096 31.0405 15.448 31.0232 15.4864C31.0123 15.5095 31.002 15.5325 30.9912 15.5556C30.9681 15.6017 30.9438 15.6471 30.9201 15.6932C30.9124 15.7067 30.906 15.7207 30.8983 15.7342C30.8669 15.7925 30.8343 15.8494 30.7997 15.9058C30.7863 15.9269 30.7728 15.9468 30.76 15.9679C30.7382 16.0031 30.7165 16.0396 30.6928 16.0735C30.6768 16.0972 30.6608 16.1203 30.6448 16.144C30.623 16.1741 30.6012 16.2054 30.5795 16.2362C30.5615 16.2599 30.543 16.2836 30.525 16.3072C30.5033 16.3354 30.4808 16.3642 30.4591 16.3924C30.4392 16.4161 30.4194 16.4398 30.4002 16.4622C30.3778 16.4897 30.3554 16.516 30.3317 16.5429C30.3112 16.5653 30.2907 16.5883 30.2702 16.6107C30.2465 16.6364 30.2228 16.662 30.1985 16.6863C30.1767 16.7087 30.1556 16.7305 30.1338 16.7522C30.1095 16.7766 30.0845 16.8003 30.0583 16.8246C30.0371 16.8451 30.0147 16.8662 29.9923 16.8867C29.9661 16.9104 29.9392 16.9328 29.9123 16.9565C29.8899 16.9751 29.8675 16.9949 29.8444 17.0141C29.8169 17.0378 29.7881 17.0589 29.7592 17.082C29.7368 17.0999 29.7151 17.1178 29.6914 17.1345C29.6606 17.1582 29.6293 17.1806 29.5973 17.203C29.5761 17.2177 29.5556 17.2337 29.5345 17.2478C29.4922 17.2766 29.4494 17.3042 29.4071 17.3311C29.393 17.3394 29.3802 17.3477 29.3668 17.356C29.3142 17.3887 29.2611 17.4194 29.2067 17.4508C29.1856 17.4623 29.1644 17.4726 29.1439 17.4834C29.1074 17.5033 29.0716 17.5219 29.0344 17.5404C29.0095 17.5526 28.9851 17.5635 28.9608 17.575C28.9262 17.591 28.8923 17.6077 28.8571 17.6224C28.8315 17.6333 28.8059 17.6435 28.779 17.655C28.745 17.6691 28.7111 17.6832 28.6765 17.696C28.6503 17.7063 28.6227 17.7165 28.5958 17.7255C28.5613 17.7376 28.5273 17.7498 28.4928 17.7607C28.4646 17.7697 28.4371 17.7786 28.4095 17.7869C28.3737 17.7978 28.3391 17.8081 28.3039 17.8177C28.2763 17.8254 28.2482 17.8337 28.22 17.8401C28.1841 17.849 28.1477 17.8574 28.1112 17.8657C28.0836 17.8715 28.0555 17.8779 28.0273 17.883C27.9901 17.8907 27.9524 17.8971 27.9152 17.9035C27.8871 17.908 27.8595 17.9137 27.8326 17.9169C27.7923 17.9233 27.7526 17.9278 27.7135 17.9323C27.6873 17.9348 27.661 17.9387 27.6341 17.9413C27.5893 17.9457 27.5451 17.9483 27.4997 17.9509C27.4779 17.9528 27.4561 17.9547 27.4331 17.9553C27.3659 17.9592 27.2986 17.9605 27.2301 17.9605C24.959 17.9534 23.0779 16.0306 23.0356 13.6213C23.0311 13.3639 23.0183 13.1065 22.9985 12.8478L23.1675 12.4047L23.1995 12.301H23.2002L23.2283 12.2069L23.2328 12.1921C23.7905 10.3558 25.4079 9.11045 27.2589 9.11622C28.8603 9.12134 30.2945 10.0606 31.0097 11.5544L31.0373 11.6152C31.1288 11.8137 31.2063 12.0205 31.2684 12.2306L31.3446 12.4931L31.4041 12.6243L31.4067 12.6301L31.4963 12.8657V12.8689C31.4739 13.1282 31.4592 13.3882 31.4534 13.6481C31.4483 13.8678 31.4278 14.0823 31.3926 14.2916ZM39.7515 40.2443C39.7323 40.2564 39.7125 40.2692 39.6933 40.2801C39.2809 40.5317 38.7911 40.6777 38.275 40.6765C37.7583 40.6745 37.289 40.5253 36.9099 40.2712C36.3074 39.8691 35.9329 39.2 35.9732 38.4399C36.0071 37.8041 36.3177 37.2119 36.8504 36.7752L37.1328 36.5447L37.298 36.3353L39.3974 33.9637L40.087 35.8032L40.475 36.8386L40.4699 36.9013L40.7055 37.4552L40.7907 37.6831C40.8695 37.929 40.897 38.1889 40.8759 38.4559C40.8157 39.1936 40.3771 39.8422 39.7515 40.2443ZM46.324 15.916L46.2658 15.9999C46.1051 16.2298 45.9232 16.4481 45.7241 16.6479L45.3041 17.0641L45.208 17.2299L42.0943 20.9378L39.1029 12.0231C39.8399 10.3289 41.4777 9.16424 43.2814 9.17C45.3975 9.17704 46.9995 10.8194 47.1378 12.9278C47.1545 13.1795 47.15 13.4381 47.1231 13.7013C47.0437 14.4908 46.7665 15.254 46.324 15.916Z" fill="url(#paint1_linear_14_121)"/>
</g>
<g style="mix-blend-mode:screen" opacity="0.35">
<path opacity="0.35" d="M35.4725 4.4729C33.7079 6.20679 32.4523 8.40552 31.853 10.7643V10.7656C31.7768 11.0646 31.7102 11.3662 31.6558 11.6703L31.6001 11.9821L31.5994 12.0078C31.577 12.1493 31.5578 12.292 31.5412 12.4342C31.5303 12.5258 31.52 12.618 31.5111 12.7095C31.506 12.762 31.5008 12.8152 31.497 12.867L31.4074 12.6314L31.4048 12.6256L31.3452 12.4944L31.2691 12.2319C31.2076 12.0212 31.1295 11.8144 31.0379 11.6165L31.0104 11.5557C30.2952 10.0619 28.8603 9.12264 27.2596 9.11752C25.4085 9.11176 23.7912 10.3571 23.2335 12.1934L23.229 12.2082L23.2226 12.2287L18.1906 5.48263C18.4666 5.10998 18.7624 4.7559 19.0774 4.42104C21.1897 2.17172 24.1088 0.824561 27.2871 0.834805C30.4489 0.84505 33.3621 2.19029 35.4725 4.4729Z" fill="url(#paint2_linear_14_121)"/>
<path opacity="0.35" d="M16.3081 9.24106L21.7595 16.0979L19.7016 21.498L19.5557 21.8809L17.5791 27.0672L12.3698 20.8116L15.3996 11.9552V11.9539L16.2127 9.57593C16.2422 9.4626 16.2742 9.35183 16.3081 9.24106Z" fill="url(#paint3_linear_14_121)"/>
<path opacity="0.35" d="M44.5242 28.1749L43.1988 29.6706L39.3975 33.9644L36.8549 27.1767L34.8867 21.9219C37.0444 19.896 38.5075 16.9904 38.7072 13.6725C38.722 13.4279 38.7553 13.1871 38.8052 12.9554L38.8193 12.8894C38.8878 12.5878 38.9832 12.2978 39.1036 12.0218L42.095 20.9365L43.9275 26.3981L44.5242 28.1749Z" fill="url(#paint4_linear_14_121)"/>
<path opacity="0.35" d="M13.4781 37.824C13.4436 38.0014 13.434 38.1838 13.4474 38.3676C13.5294 39.474 14.4661 40.3877 15.6167 40.5702L7.65989 40.5446C7.36792 39.8518 7.17071 39.1148 7.08619 38.3471C6.99783 37.5442 7.03689 36.7406 7.20593 35.9608L7.26163 35.7008L7.32502 35.558L7.32566 35.5568L7.3263 35.5555L9.90024 28.0309L14.9988 33.8376L13.4801 37.8234L13.4781 37.824Z" fill="url(#paint5_linear_14_121)"/>
<path opacity="0.35" d="M19.0774 4.42102C17.7494 5.83476 16.7544 7.59234 16.2115 9.5753L15.3983 11.9533C14.6754 10.2508 13.0433 9.07076 11.2358 9.065C8.87318 9.05731 7.14377 11.0864 7.36019 13.538L3.30591 13.5252L2.30707 4.86217C4.2196 2.35674 7.17131 0.770116 10.6199 0.781C13.5287 0.790605 16.401 1.95784 18.6734 4.03492C18.8104 4.16042 18.9455 4.28912 19.0774 4.42102Z" fill="url(#paint6_linear_14_121)"/>
<path opacity="0.35" d="M54.3775 13.7237C54.0715 15.9404 53.2007 18.0539 51.8727 19.8506L51.8305 19.9076L51.7927 19.9569L51.6486 20.1451L51.639 20.1573L51.5577 20.2629L51.5494 20.27L51.5481 20.2706C51.2894 20.5946 51.0135 20.9064 50.726 21.2048L50.6664 21.2995L50.3969 21.5416L44.5235 28.1743L43.9274 26.3988L42.0949 20.9371L45.2086 17.2293L45.3047 17.0634L45.7247 16.6472C45.9238 16.4475 46.1057 16.2298 46.2664 15.9993L46.3247 15.9154C46.7671 15.254 47.0443 14.4901 47.125 13.6994C47.1519 13.4362 47.1557 13.1775 47.1397 12.9259L54.462 12.9496C54.4415 13.207 54.4134 13.4644 54.3775 13.7237Z" fill="url(#paint7_linear_14_121)"/>
<path opacity="0.35" d="M39.3968 33.9644L37.2973 36.336L37.1321 36.5454L36.8498 36.7759C36.317 37.2125 36.0065 37.8042 35.9726 38.4406C35.9322 39.2006 36.3068 39.8691 36.9093 40.2718L29.8073 40.2488C29.669 39.6655 29.6005 39.0534 29.6114 38.4201C29.6491 36.2387 30.6518 34.0835 32.3979 32.4834L36.8542 27.1767L39.3968 33.9644Z" fill="url(#paint8_linear_14_121)"/>
<path opacity="0.35" d="M34.8867 21.9219C32.841 23.8428 30.1396 25.0036 27.2058 24.9946C24.2765 24.985 21.5867 23.8101 19.5551 21.8809L23.2329 12.1935L23.2284 12.2082L23.2002 12.3023H23.1996L23.1676 12.406L22.9985 12.8491C23.0177 13.1078 23.0312 13.3652 23.0357 13.6226C23.0779 16.032 24.9584 17.9547 27.2302 17.9618C27.2987 17.9618 27.3659 17.9605 27.4331 17.9566C27.4562 17.956 27.478 17.9541 27.4997 17.9522C27.5452 17.9496 27.59 17.947 27.6342 17.9426C27.6604 17.94 27.6873 17.9362 27.7136 17.9336C27.7526 17.9291 27.793 17.9246 27.8327 17.9182C27.8602 17.9144 27.8871 17.9093 27.9153 17.9048C27.9524 17.8984 27.9902 17.892 28.0273 17.8843C28.0555 17.8785 28.0837 17.8721 28.1112 17.867C28.1477 17.8587 28.1842 17.8504 28.22 17.8414C28.2482 17.835 28.2764 17.8267 28.3039 17.819C28.3398 17.81 28.3744 17.7998 28.4096 17.7883C28.4371 17.7799 28.4646 17.7716 28.4928 17.762C28.5274 17.7511 28.5613 17.739 28.5959 17.7268C28.6221 17.7172 28.6497 17.7076 28.6766 17.6973C28.7111 17.6845 28.7451 17.6704 28.779 17.6564C28.8053 17.6455 28.8309 17.6352 28.8571 17.6237C28.8917 17.609 28.9256 17.5923 28.9609 17.5763C28.9845 17.5654 29.0095 17.5539 29.0345 17.5417C29.071 17.5232 29.1068 17.5046 29.144 17.4848C29.1645 17.4732 29.1856 17.463 29.2067 17.4521C29.2611 17.4214 29.3143 17.3906 29.3668 17.3573C29.3809 17.349 29.3937 17.3407 29.4071 17.3324C29.4494 17.3055 29.4917 17.2779 29.5345 17.2491C29.5557 17.235 29.5762 17.219 29.5973 17.2043C29.6293 17.1819 29.6613 17.1595 29.6914 17.1358C29.7145 17.1192 29.7369 17.1012 29.7593 17.0833C29.7881 17.0609 29.8169 17.0391 29.8444 17.0154C29.8675 16.9969 29.8899 16.977 29.9123 16.9578C29.9392 16.9341 29.9661 16.9117 29.9924 16.888C30.0148 16.8675 30.0372 16.8464 30.0583 16.8259C30.0846 16.8016 30.1095 16.7779 30.1339 16.7536C30.155 16.7318 30.1768 16.71 30.1985 16.6876C30.2229 16.6633 30.2472 16.6377 30.2702 16.6121C30.2907 16.5896 30.3112 16.5666 30.3317 16.5442C30.3554 16.5179 30.3778 16.491 30.4002 16.4635C30.4201 16.4411 30.4399 16.4174 30.4591 16.3937C30.4809 16.3655 30.5033 16.3367 30.5251 16.3086C30.543 16.2849 30.5616 16.2612 30.5795 16.2375C30.6013 16.2074 30.623 16.176 30.6448 16.1453C30.6608 16.1216 30.6768 16.0985 30.6928 16.0749C30.7165 16.0409 30.7383 16.0044 30.7601 15.9692C30.7735 15.9481 30.7869 15.9282 30.7998 15.9071C30.8343 15.8508 30.8663 15.7938 30.8984 15.7355C30.906 15.7221 30.9131 15.708 30.9201 15.6945C30.9445 15.6484 30.9681 15.603 30.9912 15.5569C31.0021 15.5338 31.0123 15.5108 31.0232 15.4877C31.0405 15.4493 31.0591 15.4109 31.0757 15.3718C31.0872 15.3462 31.0975 15.32 31.1077 15.295C31.1231 15.2578 31.1391 15.2201 31.1525 15.1817C31.1634 15.1554 31.173 15.1279 31.1833 15.101C31.1961 15.0632 31.2102 15.0261 31.223 14.9877C31.2319 14.9608 31.2403 14.9326 31.2492 14.9051C31.2614 14.8666 31.2723 14.8282 31.2832 14.7885C31.2915 14.7603 31.2992 14.7328 31.3062 14.7046C31.3165 14.6649 31.3267 14.6246 31.3357 14.5836C31.3421 14.5555 31.3478 14.5286 31.3542 14.5004C31.3626 14.4575 31.3709 14.4159 31.3786 14.3723C31.3837 14.3461 31.3882 14.3192 31.3927 14.2929C31.4272 14.0836 31.4484 13.8691 31.4535 13.6507L34.8867 21.9219Z" fill="url(#paint9_linear_14_121)"/>
</g>
<defs>
<linearGradient id="paint0_linear_14_121" x1="-0.0372385" y1="23.4145" x2="54.4623" y2="23.5906" gradientUnits="userSpaceOnUse">
<stop stop-color="#F7941E"/>
<stop offset="1" stop-color="#EC008C"/>
</linearGradient>
<linearGradient id="paint1_linear_14_121" x1="-0.0372385" y1="23.4145" x2="54.4623" y2="23.5906" gradientUnits="userSpaceOnUse">
<stop stop-color="#F7941E"/>
<stop offset="1" stop-color="#EC008C"/>
</linearGradient>
<linearGradient id="paint2_linear_14_121" x1="34.0679" y1="11.644" x2="25.6853" y2="3.78668" gradientUnits="userSpaceOnUse">
<stop stop-color="#231F20"/>
<stop offset="1" stop-color="white" stop-opacity="0"/>
</linearGradient>
<linearGradient id="paint3_linear_14_121" x1="12.1128" y1="26.3787" x2="16.6263" y2="16.4772" gradientUnits="userSpaceOnUse">
<stop stop-color="#231F20"/>
<stop offset="1" stop-color="white" stop-opacity="0"/>
</linearGradient>
<linearGradient id="paint4_linear_14_121" x1="33.8413" y1="11.7878" x2="39.8554" y2="27.8824" gradientUnits="userSpaceOnUse">
<stop stop-color="#231F20"/>
<stop offset="1" stop-color="white" stop-opacity="0"/>
</linearGradient>
<linearGradient id="paint5_linear_14_121" x1="15.3043" y1="28.7422" x2="12.2518" y2="37.3205" gradientUnits="userSpaceOnUse">
<stop stop-color="#231F20"/>
<stop offset="1" stop-color="white" stop-opacity="0"/>
</linearGradient>
<linearGradient id="paint6_linear_14_121" x1="17.0956" y1="11.0106" x2="6.89636" y2="5.37217" gradientUnits="userSpaceOnUse">
<stop stop-color="#231F20"/>
<stop offset="1" stop-color="white" stop-opacity="0"/>
</linearGradient>
<linearGradient id="paint7_linear_14_121" x1="39.9938" y1="26.6268" x2="46.5419" y2="17.8375" gradientUnits="userSpaceOnUse">
<stop stop-color="#231F20"/>
<stop offset="1" stop-color="white" stop-opacity="0"/>
</linearGradient>
<linearGradient id="paint8_linear_14_121" x1="40.8068" y1="29.2863" x2="36.2521" y2="35.9251" gradientUnits="userSpaceOnUse">
<stop stop-color="#231F20"/>
<stop offset="1" stop-color="white" stop-opacity="0"/>
</linearGradient>
<linearGradient id="paint9_linear_14_121" x1="18.618" y1="16.2439" x2="30.441" y2="20.9759" gradientUnits="userSpaceOnUse">
<stop offset="0.0675" stop-color="#231F20"/>
<stop offset="1" stop-color="white" stop-opacity="0"/>
</linearGradient>
</defs>
</svg>
