<svg width="53" height="53" viewBox="0 0 53 53" fill="none" xmlns="http://www.w3.org/2000/svg">
<circle cx="26.3845" cy="26.4932" r="25.5" stroke="url(#paint0_linear_19_44)"/>
<path fill-rule="evenodd" clip-rule="evenodd" d="M15.1345 24.9968C15.1345 19.61 19.4549 15.2432 24.7844 15.2432C27.3437 15.2432 29.7981 16.2708 31.6078 18.0999C33.4175 19.9291 34.4342 22.41 34.4342 24.9968C34.4342 30.3836 30.1138 34.7505 24.7844 34.7505C19.4549 34.7505 15.1345 30.3836 15.1345 24.9968ZM34.2745 32.8542L37.1485 35.1741H37.1984C37.7799 35.7618 37.7799 36.7147 37.1984 37.3024C36.617 37.8901 35.6743 37.8901 35.0928 37.3024L32.7078 34.5689C32.4823 34.3418 32.3556 34.0333 32.3556 33.7116C32.3556 33.3898 32.4823 33.0813 32.7078 32.8542C33.1427 32.4223 33.8397 32.4223 34.2745 32.8542Z" fill="url(#paint1_linear_19_44)"/>
<defs>
<linearGradient id="paint0_linear_19_44" x1="-0.6896" y1="6.00196" x2="59.1728" y2="17.6741" gradientUnits="userSpaceOnUse">
<stop stop-color="#A21ECE"/>
<stop offset="0.46875" stop-color="#F25671"/>
<stop offset="1" stop-color="#FFCB51"/>
</linearGradient>
<linearGradient id="paint1_linear_19_44" x1="14.6698" y1="17.6268" x2="40.5718" y2="22.6772" gradientUnits="userSpaceOnUse">
<stop stop-color="#A21ECE"/>
<stop offset="0.46875" stop-color="#F25671"/>
<stop offset="1" stop-color="#FFCB51"/>
</linearGradient>
</defs>
</svg>
