<svg width="76" height="76" viewBox="0 0 76 76" fill="none" xmlns="http://www.w3.org/2000/svg">
<path d="M9.73942 66.7543L54.2179 22.2759C48.5798 16.6377 40.749 13.1922 31.9786 13.1922C14.7511 13.1922 0.655792 27.2875 0.655792 44.5151C0.655792 53.2855 4.10131 61.1162 9.73942 66.7543Z" fill="#FD3C65"/>
<path d="M9.73944 66.7543C15.3776 72.3924 23.2083 75.838 31.9787 75.838C49.2062 75.838 63.3015 61.7427 63.3015 44.5151C63.3015 35.7447 59.856 27.914 54.2179 22.2759L9.73944 66.7543Z" fill="#FD003A"/>
<path d="M16.6304 59.8633L47.6401 28.8537C43.5681 25.0949 37.93 22.5891 31.9786 22.5891C19.7627 22.5891 10.0526 32.2992 10.0526 44.5151C10.0526 50.4664 12.5585 56.1045 16.6304 59.8633Z" fill="#F0F0F0"/>
<path d="M16.6304 59.8633C20.7024 63.9353 26.0273 66.4411 31.9786 66.4411C44.1945 66.4411 53.9046 56.731 53.9046 44.5151C53.9046 38.5638 51.3988 32.9256 47.3268 29.1669L16.6304 59.8633Z" fill="#CFD3D4"/>
<path d="M23.2083 53.2855L41.0623 35.4315C38.5565 33.2389 35.4242 31.986 31.9787 31.986C25.0876 31.986 19.4495 37.6241 19.4495 44.5151C19.4495 47.9606 20.7024 51.0929 23.2083 53.2855Z" fill="#FD3C65"/>
<path d="M23.2083 53.2855C25.4009 55.7913 28.5331 57.0442 31.9787 57.0442C38.8697 57.0442 44.5078 51.4061 44.5078 44.5151C44.5078 41.0696 43.2549 37.9373 40.7491 35.7447L23.2083 53.2855Z" fill="#FD003A"/>
<path d="M29.7861 46.7077L34.1713 42.3225C33.5448 41.696 32.9183 41.3828 31.9787 41.3828C30.0993 41.3828 28.8464 42.6357 28.8464 44.5151C28.8464 45.4548 29.1596 46.0812 29.7861 46.7077Z" fill="#F0F0F0"/>
<path d="M29.786 46.7077C30.4125 47.3341 31.039 47.6474 31.9786 47.6474C33.858 47.6474 35.1109 46.3944 35.1109 44.5151C35.1109 43.5754 34.7977 42.9489 34.1712 42.3225L29.786 46.7077Z" fill="#CFD3D4"/>
<path d="M30.7257 45.768L56.4105 20.0833C56.4105 19.4568 55.784 19.4568 55.4708 19.4568C55.1576 19.4568 54.5311 19.4568 54.2179 19.77L30.7257 43.2622C30.1369 43.8511 30.046 45.0883 30.7257 45.768Z" fill="#787780"/>
<path d="M30.7257 45.768C31.3522 46.3944 32.2919 46.3944 32.9183 45.768L56.4105 22.2759C57.0369 21.6494 57.0369 20.7097 56.4105 20.0833L30.7257 45.768Z" fill="#57555C"/>
<path d="M54.2179 22.2759L69.2529 7.24088L67.9999 1.916C67.9999 1.28954 67.3735 0.976314 66.747 0.663086C66.1206 0.663086 65.4941 0.663086 65.1809 0.976314L54.2179 11.9393C54.2179 12.2525 53.9047 12.879 53.9047 13.1922V21.0229C53.9047 21.3362 54.2179 21.9626 54.2179 22.2759Z" fill="#FEDB41"/>
<path d="M74.5777 8.49382L69.2529 7.24091L54.2179 22.2759C54.5311 22.2759 55.1576 22.5891 55.4708 22.5891H63.3015C63.6147 22.5891 64.2412 22.2759 64.5544 22.2759L75.5174 11.3129C75.8307 10.6864 75.8307 10.06 75.8307 9.74673C75.5174 9.12028 75.2042 8.80705 74.5777 8.49382Z" fill="#FCBF29"/>
</svg>
